<?xml version="1.0" encoding="utf-8"?>
<!-- Generator: Adobe Illustrator 25.2.3, SVG Export Plug-In . SVG Version: 6.00 Build 0)  -->
<svg version="1.1" id="_xB7__xB9_??_xBE_?_x5F_1"
	 xmlns="http://www.w3.org/2000/svg" xmlns:xlink="http://www.w3.org/1999/xlink" x="0px" y="0px" viewBox="0 0 841.89 595.28"
	 style="enable-background:new 0 0 841.89 595.28;" xml:space="preserve">
<style type="text/css">
	.st0{fill:#0074BD;}
	.st1{fill:#17364C;}
	.st2{display:none;}
	.st3{display:inline;}
	.st4{fill:#FFFFFF;}
</style>
<g>
	<g>
		<path class="st0" d="M489.14,180c-26.72-16.19-50.02-26.73-67.26-33.35c-74.25,32.35-123.43,69.72-153.08,97.45
			c17.83,6.34,51.15,22.11,91.62,48.63C335.06,219.23,447.19,188.21,489.14,180z"/>
		<path class="st1" d="M495.23,183.75c-46.33,9.78-128.56,38.15-19.85,108.97c26.37-16.4,58.66-33.1,97.7-49.09
			C545.8,218.35,519.26,198.8,495.23,183.75z"/>
	</g>
	<g>
		<path class="st1" d="M222.52,352.73c0,15.16-10.22,25.52-25.52,25.52c-14.95,0-26.36-8.62-26.36-23.44
			c0-17.25,11.13-25.8,26.15-25.8C212.22,329.01,222.52,338.19,222.52,352.73z M196.57,374.7c9.81,0,16.41-8.28,16.41-21.07
			c0-13.56-5.7-21.07-16.48-21.07c-10.5,0-16.34,9.6-16.34,21.07C180.16,365.8,185.93,374.7,196.57,374.7z"/>
		<path class="st1" d="M237.81,329.91c3.48,0,7.79-0.35,11.82-0.35c5.98,0,9.88,0.56,12.87,1.53c9.39,3.13,14.26,11.2,14.26,21
			c0,15.37-9.74,25.18-24.9,25.18c-3.96,0-9.25-0.35-13.21-0.35c-1.18,0-2.29,0.07-6.68,0.35c0.14-5.56,0.49-11.13,0.49-16.69V344.8
			c0-1.53,0-3.13-0.49-15.23C235.79,329.84,236.77,329.91,237.81,329.91z M241.01,341.6v22.6c0,1.88,0.35,8.28,0.35,9.04
			c1.6,0.14,7.09,0.35,9.04,0.35c8.76,0,16.83-6.96,16.83-21.21c0-11.48-6.26-19.13-18.85-19.13c-2.02,0-4.73,0.14-7.02,0.35
			C241.08,337.84,241.01,340.62,241.01,341.6z"/>
		<path class="st1" d="M291.36,329.98c1.32,0,2.92-0.14,4.87-0.42c-0.56,3.41-0.77,11.75-0.77,18.99c0,19.27,0.21,22.39,0.7,28.72
			c-2.64-0.28-3.96-0.42-4.87-0.42c-1.53,0-3.76,0.35-5.01,0.42c0.56-6.12,0.76-15.93,0.76-27.26c0-14.47-0.28-17.8-0.7-20.45
			C287.32,329.71,290.8,329.98,291.36,329.98z"/>
		<path class="st1" d="M309.71,329.57c0.63,0.14,1.04,0.14,1.67,0.14c0.56,0,1.04-0.07,1.6-0.14c5.77,6.33,12.24,13.15,17.8,18.64
			l11.61,11.41c0.35,0.35,1.25,1.25,3.48,2.99V346.4c0-4.66-0.28-11.34-0.83-16.83c1.04,0.28,1.81,0.42,2.99,0.42
			c1.18,0,2.02-0.14,2.92-0.42c-0.56,6.82-0.77,15.23-0.77,24.06c0,7.93,0.07,16.07,0.14,23.99c-0.63-0.14-1.04-0.14-1.46-0.14
			c-0.21,0-0.9,0.07-1.39,0.14c-9.04-9.67-24.27-25.11-33.31-33.38c0,11.48,0,25.11,0.83,33.04c-1.46-0.28-2.64-0.42-3.13-0.42
			c-0.9,0-1.74,0.14-2.78,0.42c0.63-8.97,0.76-14.47,0.76-19.61C309.85,349.88,309.71,336.17,309.71,329.57z"/>
		<path class="st1" d="M367.92,329.98c1.46,0,2.85-0.14,4.52-0.42c-0.35,8.49-0.42,13.28-0.42,17.18v7.65c0,4.17,0.07,7.3,0.28,9.39
			c0.63,6.33,5.22,9.53,12.52,9.53c4.38,0,8.28-1.81,10.29-4.66c2.16-3.06,2.23-5.91,2.23-12.45c0-7.79-0.07-17.25-0.63-26.64
			c1.53,0.42,2.57,0.42,3.13,0.42c0.56,0,2.09-0.07,3.27-0.42c-0.28,3.48-0.42,10.15-0.63,16.62c-0.42,11.62,0.42,18.85-2.36,23.93
			c-2.64,4.8-9.04,8-16.69,8c-12.59,0-20.03-5.63-20.03-16.14v-20.73c0-3.69-0.07-7.51-0.35-11.68
			C364.65,329.78,366.32,329.98,367.92,329.98z"/>
		<path class="st1" d="M427.66,329.98c1.67,0,3.62-0.07,12.87-0.42c-0.28,0.97-0.35,1.46-0.35,2.29c0,0.9,0.14,1.88,0.35,2.5
			c-2.78-0.07-5.56-0.35-8.35-0.42c-2.78-0.07-5.63-0.07-7.86-0.07v16.34c6.05,0,13.08-0.21,15.02-0.49c-0.28,0.9-0.35,1.6-0.35,2.5
			c0,0.9,0.14,1.81,0.35,2.36c-4.87-0.42-9.04-0.49-15.02-0.49v18.85c2.99,0,12.94-0.28,16.62-0.49c-0.28,0.63-0.35,1.25-0.35,2.29
			c0,1.04,0.07,1.74,0.35,2.5c-4.24-0.28-8.49-0.42-12.73-0.42c-4.17,0-8.14,0.14-13.08,0.42c0.42-7.37,0.63-17.8,0.63-24.27
			c0-5.15-0.21-17.25-0.63-23.44C420.77,329.91,425.22,329.98,427.66,329.98z"/>
		<path class="st1" d="M509.16,332.49l-2.09,6.82h-0.7c-2.29-4.73-7.02-6.54-13.28-6.54c-11.48,0-17.8,7.58-17.8,20.87
			c0,13.14,7.51,20.79,16.69,20.79c6.4,0,11.48-2.16,16.21-7.93l0.76,0.49l-0.76,6.89c-5.29,2.99-11.2,4.38-17.53,4.38
			c-14.19,0-24.9-8.97-24.9-24.06c0-14.47,9.11-25.18,27.12-25.18C498.52,329.01,503.6,329.98,509.16,332.49z"/>
		<path class="st1" d="M566.05,352.73c0,15.16-10.22,25.52-25.53,25.52c-14.95,0-26.36-8.62-26.36-23.44
			c0-17.25,11.13-25.8,26.15-25.8C555.76,329.01,566.05,338.19,566.05,352.73z M540.11,374.7c9.81,0,16.41-8.28,16.41-21.07
			c0-13.56-5.7-21.07-16.48-21.07c-10.5,0-16.34,9.6-16.34,21.07C523.69,365.8,529.47,374.7,540.11,374.7z"/>
		<path class="st1" d="M581.28,329.91c1.32,0,11.2-0.35,12.24-0.35c10.29,0,13.49,5.91,13.49,11.41c0,6.47-4.38,11.2-12.1,12.66
			l4.73,6.82c0.42,0.63,6.96,9.95,12.59,16.83c-2.5-0.28-3.89-0.42-6.19-0.42c-1.95,0-3.2,0.14-5.63,0.42
			c-2.78-4.31-2.29-4.45-15.23-22.67h-1.67v10.15c0,1.32,0.28,11.2,0.28,12.52c-1.46-0.14-2.92-0.42-4.66-0.42
			c-1.6,0-3.2,0.21-4.8,0.42c0.28-7.02,0.63-16.76,0.63-21.7v-11.96c0-3.27-0.14-7.58-0.49-14.05
			C576.06,329.78,578.56,329.91,581.28,329.91z M583.5,351.34c2.85,0.14,3.2,0.21,4.73,0.21c6.12,0,9.6-4.1,9.6-9.6
			c0-5.29-2.16-8.76-9.18-8.97c-0.9,0-3.2,0.14-5.15,0.35V351.34z"/>
		<path class="st1" d="M618.76,343.2c0-2.71-0.28-9.11-0.49-13.63c1.6,0.21,4.24,0.35,6.75,0.35c0.97,0,9.46-0.35,10.64-0.35
			c9.32,0,13.98,5.63,13.98,12.24c0,8.69-6.05,14.4-17.53,14.4c-1.74,0-3.13-0.14-4.8-0.28v11.27c0,4.17,0.21,7.3,0.49,10.08
			c-1.74-0.28-3.13-0.42-4.87-0.42c-1.88,0-3.34,0.14-4.8,0.42c0.21-3.62,0.49-7.37,0.49-10.64L618.76,343.2z M627.31,352.52
			c1.6,0.21,2.57,0.28,3.76,0.28c6.26,0,9.6-4.73,9.6-10.36c0-5.91-3.06-9.46-8.62-9.46c-1.39,0-2.85,0.07-4.73,0.28V352.52z"/>
		<path class="st1" d="M654.57,372.48c0,2.57-2.23,4.94-4.94,4.94c-2.78,0-4.94-2.23-4.94-4.94c0-2.71,2.23-4.94,4.94-4.94
			C652.28,367.54,654.57,369.84,654.57,372.48z"/>
	</g>
</g>
<g class="st2">
	<g class="st3">
		<path class="st4" d="M1351.03,180c-26.72-16.19-50.02-26.73-67.26-33.35c-74.25,32.35-123.43,69.72-153.08,97.45
			c17.83,6.34,51.15,22.11,91.62,48.63C1196.95,219.23,1309.08,188.21,1351.03,180z"/>
		<path class="st4" d="M1357.12,183.75c-46.33,9.78-128.56,38.15-19.85,108.97c26.37-16.4,58.66-33.1,97.7-49.09
			C1407.69,218.35,1381.15,198.8,1357.12,183.75z"/>
	</g>
	<g class="st3">
		<path class="st4" d="M1084.41,352.73c0,15.16-10.22,25.52-25.52,25.52c-14.95,0-26.36-8.62-26.36-23.44
			c0-17.25,11.13-25.8,26.15-25.8C1074.11,329.01,1084.41,338.19,1084.41,352.73z M1058.46,374.7c9.81,0,16.41-8.28,16.41-21.07
			c0-13.56-5.7-21.07-16.48-21.07c-10.5,0-16.34,9.6-16.34,21.07C1042.05,365.8,1047.82,374.7,1058.46,374.7z"/>
		<path class="st4" d="M1099.7,329.91c3.48,0,7.79-0.35,11.82-0.35c5.98,0,9.88,0.56,12.87,1.53c9.39,3.13,14.26,11.2,14.26,21
			c0,15.37-9.74,25.18-24.9,25.18c-3.96,0-9.25-0.35-13.21-0.35c-1.18,0-2.29,0.07-6.68,0.35c0.14-5.56,0.49-11.13,0.49-16.69V344.8
			c0-1.53,0-3.13-0.49-15.23C1097.68,329.84,1098.66,329.91,1099.7,329.91z M1102.9,341.6v22.6c0,1.88,0.35,8.28,0.35,9.04
			c1.6,0.14,7.09,0.35,9.04,0.35c8.76,0,16.83-6.96,16.83-21.21c0-11.48-6.26-19.13-18.85-19.13c-2.02,0-4.73,0.14-7.02,0.35
			C1102.97,337.84,1102.9,340.62,1102.9,341.6z"/>
		<path class="st4" d="M1153.25,329.98c1.32,0,2.92-0.14,4.87-0.42c-0.56,3.41-0.77,11.75-0.77,18.99c0,19.27,0.21,22.39,0.7,28.72
			c-2.64-0.28-3.96-0.42-4.87-0.42c-1.53,0-3.76,0.35-5.01,0.42c0.56-6.12,0.76-15.93,0.76-27.26c0-14.47-0.28-17.8-0.7-20.45
			C1149.21,329.71,1152.69,329.98,1153.25,329.98z"/>
		<path class="st4" d="M1171.6,329.57c0.63,0.14,1.04,0.14,1.67,0.14c0.56,0,1.04-0.07,1.6-0.14c5.77,6.33,12.24,13.15,17.8,18.64
			l11.61,11.41c0.35,0.35,1.25,1.25,3.48,2.99V346.4c0-4.66-0.28-11.34-0.83-16.83c1.04,0.28,1.81,0.42,2.99,0.42
			c1.18,0,2.02-0.14,2.92-0.42c-0.56,6.82-0.77,15.23-0.77,24.06c0,7.93,0.07,16.07,0.14,23.99c-0.63-0.14-1.04-0.14-1.46-0.14
			c-0.21,0-0.9,0.07-1.39,0.14c-9.04-9.67-24.27-25.11-33.31-33.38c0,11.48,0,25.11,0.83,33.04c-1.46-0.28-2.64-0.42-3.13-0.42
			c-0.9,0-1.74,0.14-2.78,0.42c0.63-8.97,0.76-14.47,0.76-19.61C1171.74,349.88,1171.6,336.17,1171.6,329.57z"/>
		<path class="st4" d="M1229.81,329.98c1.46,0,2.85-0.14,4.52-0.42c-0.35,8.49-0.42,13.28-0.42,17.18v7.65
			c0,4.17,0.07,7.3,0.28,9.39c0.63,6.33,5.22,9.53,12.52,9.53c4.38,0,8.28-1.81,10.29-4.66c2.16-3.06,2.23-5.91,2.23-12.45
			c0-7.79-0.07-17.25-0.63-26.64c1.53,0.42,2.57,0.42,3.13,0.42c0.56,0,2.09-0.07,3.27-0.42c-0.28,3.48-0.42,10.15-0.63,16.62
			c-0.42,11.62,0.42,18.85-2.36,23.93c-2.64,4.8-9.04,8-16.69,8c-12.59,0-20.03-5.63-20.03-16.14v-20.73
			c0-3.69-0.07-7.51-0.35-11.68C1226.54,329.78,1228.21,329.98,1229.81,329.98z"/>
		<path class="st4" d="M1289.55,329.98c1.67,0,3.62-0.07,12.87-0.42c-0.28,0.97-0.35,1.46-0.35,2.29c0,0.9,0.14,1.88,0.35,2.5
			c-2.78-0.07-5.56-0.35-8.35-0.42c-2.78-0.07-5.63-0.07-7.86-0.07v16.34c6.05,0,13.08-0.21,15.02-0.49c-0.28,0.9-0.35,1.6-0.35,2.5
			c0,0.9,0.14,1.81,0.35,2.36c-4.87-0.42-9.04-0.49-15.02-0.49v18.85c2.99,0,12.94-0.28,16.62-0.49c-0.28,0.63-0.35,1.25-0.35,2.29
			c0,1.04,0.07,1.74,0.35,2.5c-4.24-0.28-8.49-0.42-12.73-0.42c-4.17,0-8.14,0.14-13.08,0.42c0.42-7.37,0.63-17.8,0.63-24.27
			c0-5.15-0.21-17.25-0.63-23.44C1282.66,329.91,1287.11,329.98,1289.55,329.98z"/>
		<path class="st4" d="M1371.05,332.49l-2.09,6.82h-0.7c-2.29-4.73-7.02-6.54-13.28-6.54c-11.48,0-17.8,7.58-17.8,20.87
			c0,13.14,7.51,20.79,16.69,20.79c6.4,0,11.48-2.16,16.21-7.93l0.76,0.49l-0.76,6.89c-5.29,2.99-11.2,4.38-17.53,4.38
			c-14.19,0-24.9-8.97-24.9-24.06c0-14.47,9.11-25.18,27.12-25.18C1360.41,329.01,1365.49,329.98,1371.05,332.49z"/>
		<path class="st4" d="M1427.94,352.73c0,15.16-10.22,25.52-25.53,25.52c-14.95,0-26.36-8.62-26.36-23.44
			c0-17.25,11.13-25.8,26.15-25.8C1417.65,329.01,1427.94,338.19,1427.94,352.73z M1402,374.7c9.81,0,16.41-8.28,16.41-21.07
			c0-13.56-5.7-21.07-16.48-21.07c-10.5,0-16.34,9.6-16.34,21.07C1385.58,365.8,1391.36,374.7,1402,374.7z"/>
		<path class="st4" d="M1443.17,329.91c1.32,0,11.2-0.35,12.24-0.35c10.29,0,13.49,5.91,13.49,11.41c0,6.47-4.38,11.2-12.1,12.66
			l4.73,6.82c0.42,0.63,6.96,9.95,12.59,16.83c-2.5-0.28-3.89-0.42-6.19-0.42c-1.95,0-3.2,0.14-5.63,0.42
			c-2.78-4.31-2.3-4.45-15.23-22.67h-1.67v10.15c0,1.32,0.28,11.2,0.28,12.52c-1.46-0.14-2.92-0.42-4.66-0.42
			c-1.6,0-3.2,0.21-4.8,0.42c0.28-7.02,0.63-16.76,0.63-21.7v-11.96c0-3.27-0.14-7.58-0.49-14.05
			C1437.95,329.78,1440.45,329.91,1443.17,329.91z M1445.39,351.34c2.85,0.14,3.2,0.21,4.73,0.21c6.12,0,9.6-4.1,9.6-9.6
			c0-5.29-2.16-8.76-9.18-8.97c-0.9,0-3.2,0.14-5.15,0.35V351.34z"/>
		<path class="st4" d="M1480.65,343.2c0-2.71-0.28-9.11-0.49-13.63c1.6,0.21,4.24,0.35,6.75,0.35c0.97,0,9.46-0.35,10.64-0.35
			c9.32,0,13.98,5.63,13.98,12.24c0,8.69-6.05,14.4-17.53,14.4c-1.74,0-3.13-0.14-4.8-0.28v11.27c0,4.17,0.21,7.3,0.49,10.08
			c-1.74-0.28-3.13-0.42-4.87-0.42c-1.88,0-3.34,0.14-4.8,0.42c0.21-3.62,0.49-7.37,0.49-10.64L1480.65,343.2z M1489.2,352.52
			c1.6,0.21,2.57,0.28,3.76,0.28c6.26,0,9.6-4.73,9.6-10.36c0-5.91-3.06-9.46-8.62-9.46c-1.39,0-2.85,0.07-4.73,0.28V352.52z"/>
		<path class="st4" d="M1516.46,372.48c0,2.57-2.23,4.94-4.94,4.94c-2.78,0-4.94-2.23-4.94-4.94c0-2.71,2.23-4.94,4.94-4.94
			C1514.17,367.54,1516.46,369.84,1516.46,372.48z"/>
	</g>
</g>
<g class="st2">
	<g class="st3">
		<path d="M2212.92,180c-26.72-16.19-50.02-26.73-67.26-33.35c-74.25,32.35-123.43,69.72-153.08,97.45
			c17.83,6.34,51.15,22.11,91.62,48.63C2058.84,219.23,2170.97,188.21,2212.92,180z"/>
		<path d="M2219.01,183.75c-46.33,9.78-128.56,38.15-19.85,108.97c26.37-16.4,58.66-33.1,97.7-49.09
			C2269.58,218.35,2243.04,198.8,2219.01,183.75z"/>
	</g>
	<g class="st3">
		<path d="M1946.3,352.73c0,15.16-10.22,25.52-25.52,25.52c-14.95,0-26.36-8.62-26.36-23.44c0-17.25,11.13-25.8,26.15-25.8
			C1936,329.01,1946.3,338.19,1946.3,352.73z M1920.35,374.7c9.81,0,16.41-8.28,16.41-21.07c0-13.56-5.7-21.07-16.48-21.07
			c-10.5,0-16.34,9.6-16.34,21.07C1903.94,365.8,1909.71,374.7,1920.35,374.7z"/>
		<path d="M1961.59,329.91c3.48,0,7.79-0.35,11.82-0.35c5.98,0,9.88,0.56,12.87,1.53c9.39,3.13,14.26,11.2,14.26,21
			c0,15.37-9.74,25.18-24.9,25.18c-3.96,0-9.25-0.35-13.21-0.35c-1.18,0-2.29,0.07-6.68,0.35c0.14-5.56,0.49-11.13,0.49-16.69V344.8
			c0-1.53,0-3.13-0.49-15.23C1959.57,329.84,1960.55,329.91,1961.59,329.91z M1964.79,341.6v22.6c0,1.88,0.35,8.28,0.35,9.04
			c1.6,0.14,7.09,0.35,9.04,0.35c8.76,0,16.83-6.96,16.83-21.21c0-11.48-6.26-19.13-18.85-19.13c-2.02,0-4.73,0.14-7.02,0.35
			C1964.86,337.84,1964.79,340.62,1964.79,341.6z"/>
		<path d="M2015.14,329.98c1.32,0,2.92-0.14,4.87-0.42c-0.56,3.41-0.77,11.75-0.77,18.99c0,19.27,0.21,22.39,0.7,28.72
			c-2.64-0.28-3.96-0.42-4.87-0.42c-1.53,0-3.76,0.35-5.01,0.42c0.56-6.12,0.76-15.93,0.76-27.26c0-14.47-0.28-17.8-0.7-20.45
			C2011.1,329.71,2014.58,329.98,2015.14,329.98z"/>
		<path d="M2033.49,329.57c0.63,0.14,1.04,0.14,1.67,0.14c0.56,0,1.04-0.07,1.6-0.14c5.77,6.33,12.24,13.15,17.8,18.64l11.61,11.41
			c0.35,0.35,1.25,1.25,3.48,2.99V346.4c0-4.66-0.28-11.34-0.83-16.83c1.04,0.28,1.81,0.42,2.99,0.42c1.18,0,2.02-0.14,2.92-0.42
			c-0.56,6.82-0.77,15.23-0.77,24.06c0,7.93,0.07,16.07,0.14,23.99c-0.63-0.14-1.04-0.14-1.46-0.14c-0.21,0-0.9,0.07-1.39,0.14
			c-9.04-9.67-24.27-25.11-33.31-33.38c0,11.48,0,25.11,0.84,33.04c-1.46-0.28-2.64-0.42-3.13-0.42c-0.9,0-1.74,0.14-2.78,0.42
			c0.63-8.97,0.76-14.47,0.76-19.61C2033.63,349.88,2033.49,336.17,2033.49,329.57z"/>
		<path d="M2091.7,329.98c1.46,0,2.85-0.14,4.52-0.42c-0.35,8.49-0.42,13.28-0.42,17.18v7.65c0,4.17,0.07,7.3,0.28,9.39
			c0.63,6.33,5.22,9.53,12.52,9.53c4.38,0,8.28-1.81,10.29-4.66c2.16-3.06,2.23-5.91,2.23-12.45c0-7.79-0.07-17.25-0.63-26.64
			c1.53,0.42,2.57,0.42,3.13,0.42c0.56,0,2.09-0.07,3.27-0.42c-0.28,3.48-0.42,10.15-0.63,16.62c-0.42,11.62,0.42,18.85-2.36,23.93
			c-2.64,4.8-9.04,8-16.69,8c-12.59,0-20.03-5.63-20.03-16.14v-20.73c0-3.69-0.07-7.51-0.35-11.68
			C2088.43,329.78,2090.1,329.98,2091.7,329.98z"/>
		<path d="M2151.44,329.98c1.67,0,3.62-0.07,12.87-0.42c-0.28,0.97-0.35,1.46-0.35,2.29c0,0.9,0.14,1.88,0.35,2.5
			c-2.78-0.07-5.56-0.35-8.35-0.42c-2.78-0.07-5.63-0.07-7.86-0.07v16.34c6.05,0,13.08-0.21,15.02-0.49c-0.28,0.9-0.35,1.6-0.35,2.5
			c0,0.9,0.14,1.81,0.35,2.36c-4.87-0.42-9.04-0.49-15.02-0.49v18.85c2.99,0,12.94-0.28,16.62-0.49c-0.28,0.63-0.35,1.25-0.35,2.29
			c0,1.04,0.07,1.74,0.35,2.5c-4.24-0.28-8.49-0.42-12.73-0.42c-4.17,0-8.14,0.14-13.08,0.42c0.42-7.37,0.63-17.8,0.63-24.27
			c0-5.15-0.21-17.25-0.63-23.44C2144.55,329.91,2149,329.98,2151.44,329.98z"/>
		<path d="M2232.94,332.49l-2.09,6.82h-0.7c-2.29-4.73-7.02-6.54-13.28-6.54c-11.48,0-17.8,7.58-17.8,20.87
			c0,13.14,7.51,20.79,16.69,20.79c6.4,0,11.48-2.16,16.21-7.93l0.76,0.49l-0.76,6.89c-5.29,2.99-11.2,4.38-17.53,4.38
			c-14.19,0-24.9-8.97-24.9-24.06c0-14.47,9.11-25.18,27.12-25.18C2222.3,329.01,2227.38,329.98,2232.94,332.49z"/>
		<path d="M2289.83,352.73c0,15.16-10.22,25.52-25.53,25.52c-14.95,0-26.36-8.62-26.36-23.44c0-17.25,11.13-25.8,26.15-25.8
			C2279.54,329.01,2289.83,338.19,2289.83,352.73z M2263.89,374.7c9.81,0,16.41-8.28,16.41-21.07c0-13.56-5.7-21.07-16.48-21.07
			c-10.5,0-16.34,9.6-16.34,21.07C2247.47,365.8,2253.25,374.7,2263.89,374.7z"/>
		<path d="M2305.06,329.91c1.32,0,11.2-0.35,12.24-0.35c10.29,0,13.49,5.91,13.49,11.41c0,6.47-4.38,11.2-12.1,12.66l4.73,6.82
			c0.42,0.63,6.96,9.95,12.59,16.83c-2.5-0.28-3.89-0.42-6.19-0.42c-1.95,0-3.2,0.14-5.63,0.42c-2.78-4.31-2.29-4.45-15.23-22.67
			h-1.67v10.15c0,1.32,0.28,11.2,0.28,12.52c-1.46-0.14-2.92-0.42-4.66-0.42c-1.6,0-3.2,0.21-4.8,0.42
			c0.28-7.02,0.63-16.76,0.63-21.7v-11.96c0-3.27-0.14-7.58-0.49-14.05C2299.84,329.78,2302.34,329.91,2305.06,329.91z
			 M2307.28,351.34c2.85,0.14,3.2,0.21,4.73,0.21c6.12,0,9.6-4.1,9.6-9.6c0-5.29-2.16-8.76-9.18-8.97c-0.9,0-3.2,0.14-5.15,0.35
			V351.34z"/>
		<path d="M2342.54,343.2c0-2.71-0.28-9.11-0.49-13.63c1.6,0.21,4.24,0.35,6.75,0.35c0.97,0,9.46-0.35,10.64-0.35
			c9.32,0,13.98,5.63,13.98,12.24c0,8.69-6.05,14.4-17.53,14.4c-1.74,0-3.13-0.14-4.8-0.28v11.27c0,4.17,0.21,7.3,0.49,10.08
			c-1.74-0.28-3.13-0.42-4.87-0.42c-1.88,0-3.34,0.14-4.8,0.42c0.21-3.62,0.49-7.37,0.49-10.64L2342.54,343.2z M2351.09,352.52
			c1.6,0.21,2.57,0.28,3.76,0.28c6.26,0,9.6-4.73,9.6-10.36c0-5.91-3.06-9.46-8.62-9.46c-1.39,0-2.85,0.07-4.73,0.28V352.52z"/>
		<path d="M2378.35,372.48c0,2.57-2.23,4.94-4.94,4.94c-2.78,0-4.94-2.23-4.94-4.94c0-2.71,2.23-4.94,4.94-4.94
			C2376.06,367.54,2378.35,369.84,2378.35,372.48z"/>
	</g>
</g>
</svg>
